<mxfile host="app.diagrams.net" modified="2024-04-17T17:29:06.022Z" agent="Mozilla/5.0 (Windows NT 10.0; Win64; x64) AppleWebKit/537.36 (KHTML, like Gecko) Chrome/123.0.0.0 Safari/537.36" etag="48fzSkWTL-2BCrqxnX2i" version="24.2.5" type="device">
  <diagram id="0Dm5w2m5YU30e-U3Iji7" name="Page-1">
    <mxGraphModel dx="882" dy="578" grid="1" gridSize="10" guides="1" tooltips="1" connect="1" arrows="1" fold="1" page="1" pageScale="1" pageWidth="850" pageHeight="1100" math="0" shadow="0">
      <root>
        <mxCell id="0" />
        <mxCell id="1" parent="0" />
        <mxCell id="YDy96Od6qkfJMvFy68V8-6" value="" style="swimlane;startSize=0;" parent="1" vertex="1">
          <mxGeometry x="40" y="40" width="160" height="120" as="geometry" />
        </mxCell>
        <mxCell id="YDy96Od6qkfJMvFy68V8-7" value="" style="rounded=1;whiteSpace=wrap;html=1;" parent="YDy96Od6qkfJMvFy68V8-6" vertex="1">
          <mxGeometry x="40" y="40" width="80" height="40" as="geometry" />
        </mxCell>
        <mxCell id="arouEbyd1-Xmre0_9hVQ-3" value="HEAD" style="text;html=1;align=center;verticalAlign=middle;whiteSpace=wrap;rounded=0;" parent="YDy96Od6qkfJMvFy68V8-6" vertex="1">
          <mxGeometry width="160" height="30" as="geometry" />
        </mxCell>
        <mxCell id="YDy96Od6qkfJMvFy68V8-8" value="" style="swimlane;startSize=0;" parent="1" vertex="1">
          <mxGeometry x="240" y="40" width="160" height="120" as="geometry" />
        </mxCell>
        <mxCell id="YDy96Od6qkfJMvFy68V8-9" value="file.txt (v1&lt;span style=&quot;background-color: initial;&quot;&gt;)&lt;/span&gt;" style="rounded=1;whiteSpace=wrap;html=1;fillColor=#dae8fc;strokeColor=#6c8ebf;" parent="YDy96Od6qkfJMvFy68V8-8" vertex="1">
          <mxGeometry x="40" y="40" width="80" height="40" as="geometry" />
        </mxCell>
        <mxCell id="arouEbyd1-Xmre0_9hVQ-2" value="Index (staging area)" style="text;html=1;align=center;verticalAlign=middle;whiteSpace=wrap;rounded=0;" parent="YDy96Od6qkfJMvFy68V8-8" vertex="1">
          <mxGeometry width="160" height="30" as="geometry" />
        </mxCell>
        <mxCell id="YDy96Od6qkfJMvFy68V8-10" value="" style="swimlane;startSize=0;" parent="1" vertex="1">
          <mxGeometry x="440" y="40" width="170" height="120" as="geometry" />
        </mxCell>
        <mxCell id="YDy96Od6qkfJMvFy68V8-11" value="file.txt (v1)" style="rounded=1;whiteSpace=wrap;html=1;fillColor=#dae8fc;strokeColor=#6c8ebf;" parent="YDy96Od6qkfJMvFy68V8-10" vertex="1">
          <mxGeometry x="40" y="40" width="80" height="40" as="geometry" />
        </mxCell>
        <mxCell id="arouEbyd1-Xmre0_9hVQ-1" value="Working directory" style="text;html=1;align=center;verticalAlign=middle;whiteSpace=wrap;rounded=0;" parent="YDy96Od6qkfJMvFy68V8-10" vertex="1">
          <mxGeometry width="170" height="30" as="geometry" />
        </mxCell>
        <mxCell id="arouEbyd1-Xmre0_9hVQ-4" style="edgeStyle=orthogonalEdgeStyle;rounded=0;orthogonalLoop=1;jettySize=auto;html=1;exitX=0.5;exitY=1;exitDx=0;exitDy=0;entryX=0.5;entryY=0;entryDx=0;entryDy=0;" parent="1" source="0yJU_FA9EbvK3_0QKE8a-1" target="0yJU_FA9EbvK3_0QKE8a-2" edge="1">
          <mxGeometry relative="1" as="geometry" />
        </mxCell>
        <mxCell id="0yJU_FA9EbvK3_0QKE8a-1" value="HEAD" style="rounded=1;whiteSpace=wrap;html=1;fillColor=#f5f5f5;fontColor=#333333;strokeColor=#666666;" parent="1" vertex="1">
          <mxGeometry x="480" y="200" width="80" height="40" as="geometry" />
        </mxCell>
        <mxCell id="LvCg3WiGqbkptk_cwPvO-1" style="edgeStyle=orthogonalEdgeStyle;rounded=0;orthogonalLoop=1;jettySize=auto;html=1;exitX=0.5;exitY=1;exitDx=0;exitDy=0;entryX=0.5;entryY=0;entryDx=0;entryDy=0;" parent="1" source="0yJU_FA9EbvK3_0QKE8a-2" edge="1">
          <mxGeometry relative="1" as="geometry">
            <mxPoint x="520" y="360" as="targetPoint" />
          </mxGeometry>
        </mxCell>
        <mxCell id="0yJU_FA9EbvK3_0QKE8a-2" value="Master" style="rounded=1;whiteSpace=wrap;html=1;fillColor=#e1d5e7;strokeColor=#9673a6;" parent="1" vertex="1">
          <mxGeometry x="480" y="280" width="80" height="40" as="geometry" />
        </mxCell>
        <mxCell id="i_00syMxTDgGL3UIOVXo-1" value="?" style="rounded=1;whiteSpace=wrap;html=1;" parent="1" vertex="1">
          <mxGeometry x="480" y="360" width="80" height="40" as="geometry" />
        </mxCell>
      </root>
    </mxGraphModel>
  </diagram>
</mxfile>
